<svg viewBox="0 0 80 80" fill="none" xmlns="http://www.w3.org/2000/svg">
  <!-- SubNetree logo (light background variant) -->
  <!-- A tree topology of network nodes representing subnet hierarchy -->

  <!-- Outer monitoring pulse ring -->
  <circle cx="40" cy="40" r="38" stroke="rgba(22,101,52,0.10)" stroke-width="1" fill="none" />
  <circle cx="40" cy="40" r="33" stroke="rgba(22,101,52,0.06)" stroke-width="0.75" fill="none" stroke-dasharray="4 3" />

  <!-- === Connection lines (drawn first, behind nodes) === -->

  <!-- Trunk: root to junction -->
  <line x1="40" y1="64" x2="40" y2="42" stroke="rgba(22,101,52,0.40)" stroke-width="2" />

  <!-- Main branches: junction to subnet nodes -->
  <line x1="40" y1="42" x2="22" y2="28" stroke="rgba(22,101,52,0.35)" stroke-width="1.75" />
  <line x1="40" y1="42" x2="58" y2="28" stroke="rgba(22,101,52,0.35)" stroke-width="1.75" />

  <!-- Leaf branches: subnet nodes to device leaves -->
  <line x1="22" y1="28" x2="13" y2="16" stroke="rgba(146,116,78,0.40)" stroke-width="1.25" />
  <line x1="22" y1="28" x2="31" y2="16" stroke="rgba(146,116,78,0.40)" stroke-width="1.25" />
  <line x1="58" y1="28" x2="49" y2="16" stroke="rgba(146,116,78,0.40)" stroke-width="1.25" />
  <line x1="58" y1="28" x2="67" y2="16" stroke="rgba(146,116,78,0.40)" stroke-width="1.25" />

  <!-- Discovery links (very subtle cross-connections) -->
  <line x1="31" y1="16" x2="49" y2="16" stroke="rgba(22,101,52,0.07)" stroke-width="0.75" />
  <line x1="22" y1="28" x2="58" y2="28" stroke="rgba(22,101,52,0.06)" stroke-width="0.75" stroke-dasharray="3 3" />

  <!-- Satellite discovery lines -->
  <line x1="40" y1="42" x2="30" y2="50" stroke="rgba(100,116,80,0.15)" stroke-width="0.75" />
  <line x1="40" y1="42" x2="52" y2="48" stroke="rgba(100,116,80,0.15)" stroke-width="0.75" />

  <!-- === Nodes (drawn on top of lines) === -->

  <!-- Leaf device nodes (earth tone, monitored endpoints) -->
  <circle cx="13" cy="16" r="3.5" fill="#f5f5f0" stroke="#92734e" stroke-width="1.25" />
  <circle cx="13" cy="16" r="1.5" fill="#92734e" />
  <circle cx="31" cy="16" r="3.5" fill="#f5f5f0" stroke="#92734e" stroke-width="1.25" />
  <circle cx="31" cy="16" r="1.5" fill="#92734e" />
  <circle cx="49" cy="16" r="3.5" fill="#f5f5f0" stroke="#92734e" stroke-width="1.25" />
  <circle cx="49" cy="16" r="1.5" fill="#92734e" />
  <circle cx="67" cy="16" r="3.5" fill="#f5f5f0" stroke="#92734e" stroke-width="1.25" />
  <circle cx="67" cy="16" r="1.5" fill="#92734e" />

  <!-- Subnet gateway nodes (green, branch points) -->
  <circle cx="22" cy="28" r="4.5" fill="#f5f5f0" stroke="#16a34a" stroke-width="1.5" />
  <circle cx="22" cy="28" r="2" fill="#16a34a" />
  <circle cx="58" cy="28" r="4.5" fill="#f5f5f0" stroke="#16a34a" stroke-width="1.5" />
  <circle cx="58" cy="28" r="2" fill="#16a34a" />

  <!-- Junction node (green, where tree branches) -->
  <circle cx="40" cy="42" r="5" fill="#f5f5f0" stroke="#16a34a" stroke-width="1.5" />
  <circle cx="40" cy="42" r="2.5" fill="#16a34a" />

  <!-- Satellite nodes (sage, discovered peripherals) -->
  <circle cx="30" cy="50" r="2.5" fill="#f5f5f0" stroke="rgba(100,116,80,0.5)" stroke-width="1" />
  <circle cx="30" cy="50" r="1" fill="#6b7a56" />
  <circle cx="52" cy="48" r="2.5" fill="#f5f5f0" stroke="rgba(100,116,80,0.5)" stroke-width="1" />
  <circle cx="52" cy="48" r="1" fill="#6b7a56" />

  <!-- Root server node (large, the vantage point) -->
  <circle cx="40" cy="64" r="7" fill="none" stroke="rgba(22,101,52,0.10)" stroke-width="0.75" />
  <circle cx="40" cy="64" r="6" fill="#f5f5f0" stroke="#16a34a" stroke-width="2" />
  <circle cx="40" cy="64" r="3" fill="#16a34a" />
</svg>
